v -4.225323 1.235202 -1.129864
v -4.218247 1.235325 -1.128687
v -4.221834 1.234784 -1.129311
v -4.228555 1.236491 -1.130323
v -4.214939 1.236806 -1.128054
v -4.231369 1.238560 -1.130668
v -4.212233 1.239041 -1.127476
v -4.233604 1.241320 -1.130876
v -4.210215 1.241869 -1.126978
v -4.235100 1.244682 -1.130928
v -4.208972 1.245128 -1.126583
v -4.235668 1.248315 -1.130810
v -4.208591 1.248655 -1.126314
v -4.235288 1.251842 -1.130542
v -4.209160 1.252289 -1.126197
v -4.234045 1.255101 -1.130147
v -4.210655 1.255651 -1.126248
v -4.232027 1.257929 -1.129648
v -4.212890 1.258410 -1.126457
v -4.229321 1.260164 -1.129071
v -4.215704 1.260479 -1.126802
v -4.226012 1.261645 -1.128438
v -4.218936 1.261768 -1.127261
v -4.222426 1.262186 -1.127813
v -4.399851 0.900101 -0.000701
v -4.407145 0.900092 -0.000701
v -4.403497 0.899607 -0.000701
v -4.396575 0.901489 -0.000701
v -4.410424 0.901472 -0.000701
v -4.393800 0.903638 -0.000701
v -4.413204 0.903614 -0.000701
v -4.391658 0.906418 -0.000701
v -4.415353 0.906389 -0.000701
v -4.390278 0.909698 -0.000701
v -4.416741 0.909665 -0.000701
v -4.389792 0.913345 -0.000701
v -4.417236 0.913311 -0.000701
v -4.390287 0.916992 -0.000701
v -4.416750 0.916959 -0.000701
v -4.391675 0.920268 -0.000701
v -4.415370 0.920238 -0.000701
v -4.393824 0.923042 -0.000701
v -4.413228 0.923018 -0.000701
v -4.396604 0.925185 -0.000701
v -4.410453 0.925167 -0.000701
v -4.399883 0.926564 -0.000701
v -4.407177 0.926555 -0.000701
v -4.403531 0.927050 -0.000701
v -4.225323 1.235202 1.129864
v -4.221834 1.234784 1.129311
v -4.218247 1.235325 1.128687
v -4.228555 1.236491 1.130323
v -4.214939 1.236806 1.128054
v -4.231369 1.238560 1.130668
v -4.212233 1.239041 1.127476
v -4.233604 1.241320 1.130876
v -4.210215 1.241869 1.126978
v -4.235100 1.244682 1.130928
v -4.208972 1.245128 1.126583
v -4.235668 1.248315 1.130810
v -4.208591 1.248655 1.126314
v -4.235288 1.251842 1.130542
v -4.209160 1.252289 1.126197
v -4.234045 1.255101 1.130147
v -4.210655 1.255651 1.126248
v -4.232027 1.257929 1.129648
v -4.212890 1.258410 1.126457
v -4.229321 1.260164 1.129071
v -4.215704 1.260479 1.126802
v -4.226012 1.261645 1.128438
v -4.218936 1.261768 1.127261
v -4.222426 1.262186 1.127813
v -4.399851 0.900101 0.000701
v -4.403497 0.899607 0.000701
v -4.407145 0.900092 0.000701
v -4.396575 0.901489 0.000701
v -4.410424 0.901472 0.000701
v -4.393800 0.903638 0.000701
v -4.413204 0.903614 0.000701
v -4.391658 0.906418 0.000701
v -4.415353 0.906389 0.000701
v -4.390278 0.909698 0.000701
v -4.416741 0.909665 0.000701
v -4.389792 0.913345 0.000701
v -4.417236 0.913311 0.000701
v -4.390287 0.916992 0.000701
v -4.416750 0.916959 0.000701
v -4.391675 0.920268 0.000701
v -4.415370 0.920238 0.000701
v -4.393824 0.923042 0.000701
v -4.413228 0.923018 0.000701
v -4.396604 0.925185 0.000701
v -4.410453 0.925167 0.000701
v -4.399883 0.926564 0.000701
v -4.407177 0.926555 0.000701
v -4.403531 0.927050 0.000701
vn 0.162836 0.057130 -0.984998
vn 0.162823 0.057261 -0.984992
vn 0.162861 0.056179 -0.985048
vn 0.162819 0.057289 -0.984991
vn 0.162835 0.057399 -0.984982
vn 0.162846 0.057527 -0.984973
vn 0.162837 0.057477 -0.984977
vn 0.162824 0.057339 -0.984988
vn 0.162818 0.057242 -0.984994
vn 0.162821 0.057323 -0.984989
vn 0.162824 0.057432 -0.984982
vn 0.162826 0.057427 -0.984982
vn 0.162827 0.057343 -0.984987
vn 0.162825 0.057268 -0.984992
vn 0.162827 0.057324 -0.984988
vn 0.162831 0.057449 -0.984980
vn 0.162829 0.057466 -0.984979
vn 0.162818 0.057379 -0.984986
vn 0.162807 0.057213 -0.984998
vn 0.162808 0.057188 -0.984999
vn 0.162811 0.057256 -0.984995
vn 0.162811 0.057479 -0.984982
vn 0.162818 0.057789 -0.984962
vn 0.162794 0.058689 -0.984913
vn 0.000000 0.000000 1.000000
vn 0.000000 0.000000 1.000000
vn 0.000000 0.000000 1.000000
vn 0.000000 0.000000 1.000000
vn 0.000000 0.000000 1.000000
vn 0.000000 0.000000 1.000000
vn 0.000000 0.000000 1.000000
vn 0.000000 0.000000 1.000000
vn 0.000000 0.000000 1.000000
vn 0.000000 0.000000 1.000000
vn 0.000000 0.000000 1.000000
vn 0.000000 0.000000 1.000000
vn 0.000000 0.000000 1.000000
vn 0.000000 0.000000 1.000000
vn 0.000000 0.000000 1.000000
vn 0.000000 0.000000 1.000000
vn 0.000000 0.000000 1.000000
vn 0.000000 0.000000 1.000000
vn 0.000000 0.000000 1.000000
vn 0.000000 0.000000 1.000000
vn 0.000000 0.000000 1.000000
vn 0.000000 0.000000 1.000000
vn 0.000000 0.000000 1.000000
vn 0.000000 0.000000 1.000000
vn 0.162836 0.057130 0.984998
vn 0.162861 0.056179 0.985048
vn 0.162823 0.057261 0.984992
vn 0.162819 0.057289 0.984991
vn 0.162835 0.057399 0.984982
vn 0.162846 0.057527 0.984973
vn 0.162837 0.057477 0.984977
vn 0.162824 0.057339 0.984988
vn 0.162818 0.057242 0.984994
vn 0.162821 0.057323 0.984989
vn 0.162824 0.057432 0.984982
vn 0.162826 0.057427 0.984982
vn 0.162827 0.057343 0.984987
vn 0.162825 0.057268 0.984992
vn 0.162827 0.057324 0.984988
vn 0.162831 0.057449 0.984980
vn 0.162829 0.057466 0.984979
vn 0.162818 0.057379 0.984986
vn 0.162807 0.057213 0.984998
vn 0.162808 0.057188 0.984999
vn 0.162811 0.057256 0.984995
vn 0.162811 0.057479 0.984982
vn 0.162818 0.057789 0.984962
vn 0.162794 0.058689 0.984913
vn 0.000000 0.000000 -1.000000
vn 0.000000 0.000000 -1.000000
vn 0.000000 0.000000 -1.000000
vn 0.000000 0.000000 -1.000000
vn 0.000000 0.000000 -1.000000
vn 0.000000 0.000000 -1.000000
vn 0.000000 0.000000 -1.000000
vn 0.000000 0.000000 -1.000000
vn 0.000000 0.000000 -1.000000
vn 0.000000 0.000000 -1.000000
vn 0.000000 0.000000 -1.000000
vn 0.000000 0.000000 -1.000000
vn 0.000000 0.000000 -1.000000
vn 0.000000 0.000000 -1.000000
vn 0.000000 0.000000 -1.000000
vn 0.000000 0.000000 -1.000000
vn 0.000000 0.000000 -1.000000
vn 0.000000 0.000000 -1.000000
vn 0.000000 0.000000 -1.000000
vn 0.000000 0.000000 -1.000000
vn 0.000000 0.000000 -1.000000
vn 0.000000 0.000000 -1.000000
vn 0.000000 0.000000 -1.000000
vn 0.000000 0.000000 -1.000000
vt 0.000000 0.000000
vt 0.000000 0.000000
vt 0.000000 0.000000
vt 0.000000 0.000000
vt 0.000000 0.000000
vt 0.000000 0.000000
vt 0.000000 0.000000
vt 0.000000 0.000000
vt 0.000000 0.000000
vt 0.000000 0.000000
vt 0.000000 0.000000
vt 0.000000 0.000000
vt 0.000000 0.000000
vt 0.000000 0.000000
vt 0.000000 0.000000
vt 0.000000 0.000000
vt 0.000000 0.000000
vt 0.000000 0.000000
vt 0.000000 0.000000
vt 0.000000 0.000000
vt 0.000000 0.000000
vt 0.000000 0.000000
vt 0.000000 0.000000
vt 0.000000 0.000000
vt 0.000000 0.000000
vt 0.000000 0.000000
vt 0.000000 0.000000
vt 0.000000 0.000000
vt 0.000000 0.000000
vt 0.000000 0.000000
vt 0.000000 0.000000
vt 0.000000 0.000000
vt 0.000000 0.000000
vt 0.000000 0.000000
vt 0.000000 0.000000
vt 0.000000 0.000000
vt 0.000000 0.000000
vt 0.000000 0.000000
vt 0.000000 0.000000
vt 0.000000 0.000000
vt 0.000000 0.000000
vt 0.000000 0.000000
vt 0.000000 0.000000
vt 0.000000 0.000000
vt 0.000000 0.000000
vt 0.000000 0.000000
vt 0.000000 0.000000
vt 0.000000 0.000000
vt 0.000000 0.000000
vt 0.000000 0.000000
vt 0.000000 0.000000
vt 0.000000 0.000000
vt 0.000000 0.000000
vt 0.000000 0.000000
vt 0.000000 0.000000
vt 0.000000 0.000000
vt 0.000000 0.000000
vt 0.000000 0.000000
vt 0.000000 0.000000
vt 0.000000 0.000000
vt 0.000000 0.000000
vt 0.000000 0.000000
vt 0.000000 0.000000
vt 0.000000 0.000000
vt 0.000000 0.000000
vt 0.000000 0.000000
vt 0.000000 0.000000
vt 0.000000 0.000000
vt 0.000000 0.000000
vt 0.000000 0.000000
vt 0.000000 0.000000
vt 0.000000 0.000000
vt 0.000000 0.000000
vt 0.000000 0.000000
vt 0.000000 0.000000
vt 0.000000 0.000000
vt 0.000000 0.000000
vt 0.000000 0.000000
vt 0.000000 0.000000
vt 0.000000 0.000000
vt 0.000000 0.000000
vt 0.000000 0.000000
vt 0.000000 0.000000
vt 0.000000 0.000000
vt 0.000000 0.000000
vt 0.000000 0.000000
vt 0.000000 0.000000
vt 0.000000 0.000000
vt 0.000000 0.000000
vt 0.000000 0.000000
vt 0.000000 0.000000
vt 0.000000 0.000000
vt 0.000000 0.000000
vt 0.000000 0.000000
vt 0.000000 0.000000
vt 0.000000 0.000000
f 1/1/1 2/2/2 3/3/3
f 4/4/4 2/2/2 1/1/1
f 4/4/4 5/5/5 2/2/2
f 6/6/6 5/5/5 4/4/4
f 6/6/6 7/7/7 5/5/5
f 8/8/8 7/7/7 6/6/6
f 8/8/8 9/9/9 7/7/7
f 10/10/10 9/9/9 8/8/8
f 10/10/10 11/11/11 9/9/9
f 12/12/12 11/11/11 10/10/10
f 12/12/12 13/13/13 11/11/11
f 14/14/14 13/13/13 12/12/12
f 14/14/14 15/15/15 13/13/13
f 16/16/16 15/15/15 14/14/14
f 16/16/16 17/17/17 15/15/15
f 18/18/18 17/17/17 16/16/16
f 18/18/18 19/19/19 17/17/17
f 20/20/20 19/19/19 18/18/18
f 20/20/20 21/21/21 19/19/19
f 22/22/22 21/21/21 20/20/20
f 22/22/22 23/23/23 21/21/21
f 24/24/24 23/23/23 22/22/22
f 25/25/25 26/26/26 27/27/27
f 28/28/28 26/26/26 25/25/25
f 28/28/28 29/29/29 26/26/26
f 30/30/30 29/29/29 28/28/28
f 30/30/30 31/31/31 29/29/29
f 32/32/32 31/31/31 30/30/30
f 32/32/32 33/33/33 31/31/31
f 34/34/34 33/33/33 32/32/32
f 34/34/34 35/35/35 33/33/33
f 36/36/36 35/35/35 34/34/34
f 36/36/36 37/37/37 35/35/35
f 38/38/38 37/37/37 36/36/36
f 38/38/38 39/39/39 37/37/37
f 40/40/40 39/39/39 38/38/38
f 40/40/40 41/41/41 39/39/39
f 42/42/42 41/41/41 40/40/40
f 42/42/42 43/43/43 41/41/41
f 44/44/44 43/43/43 42/42/42
f 44/44/44 45/45/45 43/43/43
f 46/46/46 45/45/45 44/44/44
f 46/46/46 47/47/47 45/45/45
f 48/48/48 47/47/47 46/46/46
f 49/49/49 50/50/50 51/51/51
f 52/52/52 49/49/49 51/51/51
f 52/52/52 51/51/51 53/53/53
f 54/54/54 52/52/52 53/53/53
f 54/54/54 53/53/53 55/55/55
f 56/56/56 54/54/54 55/55/55
f 56/56/56 55/55/55 57/57/57
f 58/58/58 56/56/56 57/57/57
f 58/58/58 57/57/57 59/59/59
f 60/60/60 58/58/58 59/59/59
f 60/60/60 59/59/59 61/61/61
f 62/62/62 60/60/60 61/61/61
f 62/62/62 61/61/61 63/63/63
f 64/64/64 62/62/62 63/63/63
f 64/64/64 63/63/63 65/65/65
f 66/66/66 64/64/64 65/65/65
f 66/66/66 65/65/65 67/67/67
f 68/68/68 66/66/66 67/67/67
f 68/68/68 67/67/67 69/69/69
f 70/70/70 68/68/68 69/69/69
f 70/70/70 69/69/69 71/71/71
f 72/72/72 70/70/70 71/71/71
f 73/73/73 74/74/74 75/75/75
f 76/76/76 73/73/73 75/75/75
f 76/76/76 75/75/75 77/77/77
f 78/78/78 76/76/76 77/77/77
f 78/78/78 77/77/77 79/79/79
f 80/80/80 78/78/78 79/79/79
f 80/80/80 79/79/79 81/81/81
f 82/82/82 80/80/80 81/81/81
f 82/82/82 81/81/81 83/83/83
f 84/84/84 82/82/82 83/83/83
f 84/84/84 83/83/83 85/85/85
f 86/86/86 84/84/84 85/85/85
f 86/86/86 85/85/85 87/87/87
f 88/88/88 86/86/86 87/87/87
f 88/88/88 87/87/87 89/89/89
f 90/90/90 88/88/88 89/89/89
f 90/90/90 89/89/89 91/91/91
f 92/92/92 90/90/90 91/91/91
f 92/92/92 91/91/91 93/93/93
f 94/94/94 92/92/92 93/93/93
f 94/94/94 93/93/93 95/95/95
f 96/96/96 94/94/94 95/95/95
